<svg version="1.1" id="Layer_1" xmlns="http://www.w3.org/2000/svg" xmlns:xlink="http://www.w3.org/1999/xlink" x="0px" y="0px"
	 width="100%" viewBox="0 0 1024 736" enable-background="new 0 0 1024 736" xml:space="preserve">
<path fill="#000000" opacity="1.000000" stroke="none" 
	d="
M226.662048,288.004028 
	C224.399689,293.886597 222.526428,299.530792 221.262146,305.388367 
	C215.016052,334.327362 202.705566,360.103485 180.560593,380.307281 
	C164.320969,395.123352 145.440933,404.109436 122.855148,403.360046 
	C112.587563,403.019409 102.343277,403.981567 92.054710,401.755432 
	C78.144470,398.745697 66.124352,392.386292 55.473217,383.366974 
	C33.670212,364.904327 21.103924,340.902649 13.227354,313.742615 
	C6.554081,290.731812 6.946898,267.321625 7.943717,244.000427 
	C9.073102,217.577805 17.091993,192.781525 31.352768,170.316788 
	C43.783352,150.735123 60.050453,135.478989 82.017799,126.916443 
	C87.808708,124.659233 93.921890,123.214767 99.932655,122.942032 
	C122.578217,121.914482 145.194443,121.313858 165.623077,134.240341 
	C181.191116,144.091217 193.137146,157.201645 202.600815,172.746216 
	C211.922668,188.057846 218.113510,204.593521 221.551193,222.209412 
	C222.468430,226.909668 224.215057,231.457672 225.726318,236.027481 
	C226.296432,237.751450 227.204681,239.404449 229.473969,240.108002 
	C231.508698,238.852570 232.268204,236.701950 232.623352,234.410187 
	C233.690308,227.525330 234.712570,220.655624 234.696869,213.633804 
	C234.610901,175.138336 234.672623,136.642548 234.636703,98.146919 
	C234.633011,94.181854 235.001770,90.290451 238.527664,87.927544 
	C243.374344,84.679520 250.169403,87.463455 251.655197,93.194603 
	C252.187637,95.248390 252.189636,97.476646 252.191559,99.625496 
	C252.219681,131.121857 252.203094,162.618271 252.205917,194.114670 
	C252.206833,204.429337 258.570129,208.756165 268.228882,204.909027 
	C275.374603,202.062805 282.563995,199.511429 290.432251,200.327805 
	C303.772461,201.711914 311.173920,208.193420 314.241180,221.307709 
	C314.817566,223.772217 315.578033,226.133011 316.729614,228.331711 
	C318.713654,232.119858 320.766205,232.373352 323.553375,229.027863 
	C325.017517,227.270386 326.145447,225.154922 327.082336,223.048599 
	C333.938477,207.634567 345.614685,199.511780 362.612854,199.692932 
	C370.080353,199.772522 377.585388,198.877747 385.020660,200.497101 
	C394.132904,202.481735 402.404083,211.103378 403.144928,220.160126 
	C403.459259,224.002991 401.508545,227.277374 398.222626,229.397263 
	C395.149597,231.379791 391.889221,232.346420 388.445740,229.954346 
	C385.171539,227.679825 381.621460,225.763824 378.530304,223.271454 
	C367.165344,214.107986 350.298157,221.275864 345.244629,234.701797 
	C341.672058,244.193146 343.581177,253.101578 346.956482,261.842712 
	C352.572968,276.387970 361.286285,289.213257 370.558868,301.623322 
	C379.512604,313.606720 388.872253,325.287781 397.771729,337.310303 
	C402.768463,344.060547 405.232422,352.114624 407.967560,359.965424 
	C408.226929,360.709869 408.288483,361.655853 408.082855,362.410431 
	C401.853363,385.271057 397.687134,408.829590 386.223785,429.961731 
	C378.205078,444.743927 369.153778,458.893219 358.156586,471.688477 
	C353.319916,477.315979 347.491791,481.661530 340.496521,484.341003 
	C337.179718,485.611481 334.030762,486.067688 331.523590,482.813080 
	C328.190948,478.486969 327.878052,473.945923 330.506256,470.374115 
	C332.924225,467.088013 336.719208,465.410950 339.458313,462.492432 
	C348.146759,453.234985 355.379791,442.892792 362.099518,432.178284 
	C373.359222,414.224823 380.174713,394.480988 384.942627,373.993286 
	C387.252075,364.069458 385.165192,355.006012 378.780640,346.767609 
	C366.150085,330.469727 352.859528,314.661224 341.884277,297.116028 
	C336.131958,287.920288 331.034393,278.466187 327.454041,268.192871 
	C326.166412,264.498291 324.594086,259.381592 320.198059,259.908936 
	C316.132568,260.396576 315.973083,265.685822 315.366486,269.390045 
	C314.965851,271.836578 314.994934,274.369019 314.993713,276.863068 
	C314.978485,307.859528 315.074005,338.856323 314.933624,369.852112 
	C314.904510,376.281525 314.790527,382.748840 312.012482,388.906830 
	C306.901459,400.236145 296.270599,404.168884 285.354401,403.141937 
	C278.825592,402.527740 272.298553,400.965912 266.346008,397.639893 
	C261.103729,394.710754 253.509598,396.018860 248.687393,400.399719 
	C245.894547,402.936981 243.222397,405.512482 239.055740,403.555664 
	C234.853287,401.582001 234.635727,397.783875 234.639816,393.822021 
	C234.669006,365.491913 234.668060,337.161743 234.645523,308.831604 
	C234.640625,302.667114 233.430984,296.625153 232.436478,290.577393 
	C232.124008,288.677246 231.330460,286.761780 229.829453,285.345123 
	C228.066238,285.249695 227.835846,286.948242 226.662048,288.004028 
M113.428902,168.765533 
	C112.033386,163.835175 111.237617,158.762146 109.078270,154.015549 
	C105.117859,145.309921 97.288948,142.167114 88.542244,146.007889 
	C67.519920,155.239059 52.742443,170.954666 42.190624,190.923096 
	C34.534576,205.411530 29.898804,220.877304 27.127909,237.061584 
	C24.730026,251.067169 24.057720,265.085052 25.572521,279.083221 
	C27.286524,294.922180 30.975721,310.410980 37.432190,325.097382 
	C47.994923,349.124268 63.377216,368.700378 87.987801,379.759247 
	C97.441452,384.007294 105.892868,380.410278 108.698166,370.462219 
	C112.117447,358.336914 114.612305,345.982910 117.302452,333.675507 
	C120.989090,316.809113 124.015656,299.748444 125.242188,282.631531 
	C126.267159,268.327667 126.703682,253.876892 126.036133,239.357803 
	C124.935638,215.421844 119.833961,192.448776 113.428902,168.765533 
M198.431076,316.140198 
	C200.778580,311.318573 201.650070,306.057159 202.995468,300.932953 
	C208.743469,279.040619 208.584366,256.767303 205.137604,234.769608 
	C201.989471,214.677856 194.934143,195.605576 182.904495,178.782303 
	C172.048553,163.600433 158.867844,151.321426 140.941589,144.819519 
	C137.307556,143.501434 134.407333,144.137726 131.829086,146.693649 
	C129.110321,149.388901 127.453888,152.332184 128.819733,156.521729 
	C134.162170,172.908997 138.564377,189.440781 140.759552,206.687363 
	C142.962173,223.992661 144.741989,241.294495 144.953842,258.682312 
	C145.339386,290.324310 145.044250,321.974548 145.040115,353.621368 
	C145.039673,356.952209 144.888107,360.298737 145.150574,363.610718 
	C145.740173,371.050293 154.406647,375.177643 160.338348,370.719879 
	C178.753876,356.880432 190.749573,338.479706 198.431076,316.140198 
M292.746765,227.810165 
	C288.635132,223.058777 283.041473,221.851166 277.744995,223.951385 
	C265.016418,228.998688 252.589890,241.119461 252.412415,256.817596 
	C252.079300,286.282013 252.377991,315.753021 252.196014,345.219940 
	C252.100113,360.751831 265.528015,375.422607 278.738647,379.809601 
	C285.498779,382.054504 293.699707,377.867065 295.340485,371.042572 
	C296.534058,366.078186 297.522095,360.919769 297.548126,355.842468 
	C297.733307,319.715149 297.818451,283.584839 297.488464,247.459564 
	C297.429565,241.011948 297.278229,234.127350 292.746765,227.810165 
z"/>
<path fill="#000000" opacity="1.000000" stroke="none" 
	d="
M524.321777,355.000061 
	C524.326172,388.497711 524.280212,421.495514 524.386536,454.492798 
	C524.402954,459.602722 523.155884,464.315308 521.597351,469.078522 
	C520.224487,473.274261 517.580322,475.128815 513.300110,474.252930 
	C509.106079,473.394653 506.611786,471.086700 506.631012,466.351898 
	C506.719513,444.520508 506.735260,422.688141 506.623413,400.856934 
	C506.585144,393.389954 506.909363,385.936737 505.924377,378.439026 
	C505.288605,373.599792 506.604645,368.537476 506.620087,363.573822 
	C506.707275,335.576080 507.129242,307.566925 506.465332,279.584747 
	C506.149811,266.287994 505.973328,252.985794 505.628296,239.689087 
	C505.394592,230.682526 506.315033,221.753128 506.712311,212.790100 
	C506.938263,207.692245 510.241699,204.739090 515.433105,204.672760 
	C518.923889,204.628159 522.414673,204.500504 525.828735,205.574982 
	C532.390137,207.639999 538.467773,206.232697 544.614197,203.449509 
	C556.501892,198.066605 574.825500,198.447464 583.108643,211.796768 
	C585.974060,216.414764 590.122009,216.161377 593.843201,212.141602 
	C594.967529,210.927094 595.992493,209.591492 596.885376,208.197632 
	C599.195007,204.592178 602.285828,202.711533 606.552917,204.109131 
	C610.993225,205.563477 613.086426,208.984406 613.325134,213.539917 
	C613.629211,219.343140 613.652710,225.149261 614.000183,230.963699 
	C615.064941,248.779251 619.082703,266.010712 622.838562,283.339569 
	C626.709106,301.197540 632.381653,318.534363 637.380554,336.068573 
	C638.558044,340.198608 641.350647,342.373169 645.290466,342.436737 
	C648.883423,342.494629 651.443726,340.215546 652.700378,336.736206 
	C659.404053,318.175049 665.321228,299.356750 670.986145,280.459290 
	C675.985352,263.782532 680.367615,246.923065 684.010925,229.913849 
	C687.652893,212.910858 691.169128,195.811905 693.279785,178.576157 
	C694.520813,168.441544 695.143311,158.106689 695.868103,147.854965 
	C697.080750,130.705185 696.198914,113.583481 696.688049,96.460220 
	C696.813965,92.051155 698.023376,88.069794 702.945435,86.844696 
	C708.469482,85.469757 713.270447,89.033463 713.215088,95.224236 
	C712.998962,119.360817 713.949951,143.491119 712.613770,167.642792 
	C711.527893,187.270508 708.159241,206.469498 704.484314,225.682007 
	C704.086487,227.762009 704.077148,230.055771 704.500244,232.125092 
	C705.457336,236.805435 709.378906,238.633179 713.474426,236.219070 
	C716.021057,234.718002 718.122986,232.478134 720.494507,230.661270 
	C727.286926,225.457596 734.842896,221.565628 742.766357,218.488571 
	C754.386597,213.975876 764.574951,207.829330 770.633728,196.378159 
	C770.940918,195.797455 771.466736,195.336563 771.820068,194.775360 
	C773.903259,191.466660 776.530579,188.966171 780.787415,189.862823 
	C785.332275,190.820129 786.537109,194.766037 787.156067,198.505569 
	C787.937927,203.228897 788.284180,208.074707 788.290283,212.868362 
	C788.361511,268.864258 788.278870,324.860382 788.412292,380.856049 
	C788.426208,386.708313 787.557861,392.440857 787.156982,398.226105 
	C786.908264,401.815277 785.551514,405.606659 781.573608,406.966461 
	C777.367310,408.404358 774.935120,405.838928 772.516907,402.651337 
	C767.627258,396.205994 760.781433,394.961517 753.436096,398.162109 
	C745.010620,401.833374 736.455078,404.200134 726.903442,402.664337 
	C713.789001,400.555756 706.570984,388.284302 706.615662,376.810730 
	C706.742188,344.313568 706.623718,311.815491 706.711792,279.318054 
	C706.720459,276.102905 706.271362,272.987885 705.440247,269.985565 
	C704.764526,267.544342 703.951782,264.507355 700.623901,264.374512 
	C697.489075,264.249420 695.865723,266.661713 694.940918,269.215210 
	C693.307129,273.726257 691.837708,278.310883 690.575317,282.939941 
	C685.599182,301.187164 679.701965,319.130646 673.513733,337.001038 
	C667.642456,353.956177 661.156250,370.660858 654.646240,387.370239 
	C652.668457,392.446686 649.152588,393.472809 644.487488,393.444031 
	C639.944763,393.416046 637.311890,391.381744 635.497742,387.091766 
	C629.220276,372.247131 623.651550,357.130341 618.897766,341.766602 
	C613.079346,322.962219 606.983948,304.207520 603.535828,284.732971 
	C601.979797,275.944519 599.845642,267.248932 597.697998,258.579559 
	C596.888977,255.313782 596.015930,250.565094 592.127869,250.770142 
	C588.407043,250.966339 588.407959,255.872375 587.907776,258.948578 
	C586.593567,267.030060 587.562561,275.231934 587.329712,283.380402 
	C587.267883,285.545197 587.347534,287.713745 587.309021,289.879608 
	C587.189636,296.598053 584.146851,300.210754 578.549683,300.320984 
	C572.942444,300.431366 569.725769,296.849579 569.683777,290.052490 
	C569.599487,276.387329 569.747864,262.720245 569.598755,249.056152 
	C569.548218,244.427658 569.179382,239.759628 568.450012,235.190445 
	C566.933960,225.693466 557.107910,220.163284 548.338501,224.499878 
	C533.803467,231.687729 524.349243,242.767578 524.334778,260.011292 
	C524.308289,291.507538 524.323486,323.003815 524.321777,355.000061 
M766.616882,239.932999 
	C763.801697,236.781631 760.267090,234.444962 756.087036,235.526016 
	C746.105225,238.107574 737.112427,242.658417 730.479980,250.934662 
	C724.380310,258.545959 723.595520,267.792603 723.463257,276.876495 
	C723.123718,300.192780 723.350037,323.517334 723.347351,346.838562 
	C723.346619,352.982452 723.476807,359.089966 724.310303,365.220764 
	C726.230103,379.341919 736.606689,384.455139 748.726318,377.085419 
	C762.714050,368.579773 769.532043,356.057831 769.580994,339.852905 
	C769.672058,309.702148 769.577332,279.550873 769.650513,249.399994 
	C769.658508,246.103043 769.198059,243.118973 766.616882,239.932999 
z"/>
<path fill="#000000" opacity="1.000000" stroke="none" 
	d="
M908.338135,126.000122 
	C908.337463,172.989960 908.525452,219.481171 908.184875,265.968506 
	C908.112244,275.883148 911.690002,282.606628 919.992554,287.614014 
	C928.815613,292.935272 928.796509,299.080872 919.994324,304.386688 
	C911.702271,309.384918 907.812500,316.081543 908.177185,326.055237 
	C908.650879,339.008423 908.077576,352.024780 909.468445,364.928345 
	C910.410706,373.669800 913.472534,382.021423 915.908325,390.451324 
	C922.550049,413.437988 933.998718,433.945892 948.532593,452.841644 
	C952.926147,458.553711 958.156067,463.371460 963.460510,468.185089 
	C968.031982,472.333588 968.698547,477.212036 965.874207,481.503021 
	C963.679810,484.837036 960.906799,485.989075 956.900635,484.641174 
	C948.672852,481.872833 942.429565,476.423340 937.099243,469.962250 
	C924.017273,454.105286 912.649719,437.036713 904.870605,417.973724 
	C896.190857,396.703705 889.713928,374.824432 890.598816,351.378723 
	C890.988159,341.062531 890.622803,330.718933 890.670166,320.388123 
	C890.686157,316.889648 889.529724,314.150604 886.163818,312.778259 
	C881.697388,310.957214 878.517700,312.931091 878.272583,317.736450 
	C878.094421,321.227234 878.183655,324.732605 878.184387,328.231476 
	C878.193726,373.054993 878.180481,417.878540 878.261719,462.701935 
	C878.270691,467.641052 877.472351,471.590820 871.787598,472.891388 
	C867.821106,473.798889 865.116211,472.399445 863.811035,468.851959 
	C861.980469,463.876251 860.594971,458.809479 860.601990,453.341095 
	C860.689270,385.522675 860.657776,317.704163 860.673828,249.885651 
	C860.675049,244.715485 859.912842,239.621201 858.917908,234.596359 
	C857.054321,225.184174 848.350952,220.335846 839.558655,224.384689 
	C826.293823,230.493118 815.234924,242.802094 815.287231,259.181091 
	C815.430786,304.170776 815.334717,349.161255 815.331726,394.151398 
	C815.331604,395.984253 815.429199,397.826508 815.281189,399.648102 
	C814.948853,403.736572 812.993469,406.680634 808.717041,407.213287 
	C804.582947,407.728180 802.140381,405.201599 800.860840,401.632812 
	C797.757446,392.977264 796.075378,384.069794 796.084839,374.815735 
	C796.137451,323.660339 796.085999,272.504822 796.142090,221.349426 
	C796.146179,217.577759 795.970825,213.712753 797.767700,210.142914 
	C801.396301,202.934021 808.133911,203.734009 813.878174,205.077164 
	C822.082153,206.995453 829.366455,206.456924 837.020447,202.884872 
	C844.412048,199.435272 852.572876,199.066940 860.405884,201.597244 
	C871.821899,205.284958 878.012878,215.160583 878.150024,229.338516 
	C878.283875,243.167603 878.172180,256.998932 878.219727,270.829071 
	C878.233276,274.771667 877.471802,279.372528 883.420898,279.791931 
	C888.047607,280.118073 890.642761,276.729675 890.644897,270.529694 
	C890.664062,213.875427 890.661072,157.221146 890.665161,100.566879 
	C890.665283,99.067215 890.615479,97.564934 890.685242,96.068359 
	C890.950439,90.380943 894.391113,86.752022 899.527100,86.689583 
	C904.745056,86.626144 908.221191,90.129112 908.301208,96.009850 
	C908.434937,105.838287 908.337891,115.669861 908.338135,126.000122 
z"/>
<path fill="#000000" opacity="1.000000" stroke="none" 
	d="
M492.694458,271.179779 
	C487.796600,281.057495 479.502930,287.386963 472.029572,294.435913 
	C461.869812,304.018738 451.299591,313.197083 441.567657,323.193604 
	C432.993408,332.001007 432.492371,343.537720 433.804749,354.983429 
	C434.509247,361.127686 434.949310,367.332581 438.547058,373.019989 
	C445.017517,383.248566 460.265411,386.929749 469.845856,379.257935 
	C472.536133,377.103638 475.754700,375.497894 478.929443,374.087341 
	C483.081421,372.242523 487.124634,372.808197 490.340912,376.236938 
	C493.620850,379.733612 494.206207,383.683960 492.198547,388.183167 
	C487.589783,398.511749 479.250641,403.116669 468.450409,403.269165 
	C459.697327,403.392761 450.924988,404.087372 442.202393,401.587372 
	C428.344818,397.615662 420.320984,388.497589 416.680908,374.961273 
	C416.207245,373.199921 416.004547,371.330750 415.296967,369.673523 
	C412.721222,363.640686 412.119659,357.668427 414.378906,351.315430 
	C416.000183,346.756439 415.973938,341.851288 415.968994,337.010040 
	C415.935425,304.201019 415.933380,271.391968 415.941742,238.582947 
	C415.943970,229.792389 417.216156,221.326630 422.758820,214.077560 
	C428.798035,206.179062 436.747406,201.131577 446.605560,200.158600 
	C456.513794,199.180664 466.542786,198.765549 476.440674,200.627335 
	C484.746490,202.189651 492.211334,210.971802 493.429474,219.423126 
	C494.782867,228.813034 495.376801,238.197617 495.443024,247.680756 
	C495.497894,255.543427 494.927643,263.247528 492.694458,271.179779 
M473.439484,261.841003 
	C475.615692,257.481659 477.105652,252.711899 477.330414,248.030258 
	C477.686005,240.623550 477.115723,232.966827 472.395935,226.701447 
	C467.414398,220.088501 460.410858,217.763489 452.470093,219.817673 
	C443.610809,222.109482 437.538910,227.807358 435.424225,236.889542 
	C432.148376,250.958923 433.690521,265.313599 433.309845,279.556183 
	C433.192566,283.944611 434.938385,286.841583 438.889465,288.601959 
	C443.107086,290.481079 446.569489,289.427246 449.738373,286.270172 
	C452.912445,283.108002 456.360596,280.219025 459.504517,277.028900 
	C464.154053,272.311035 469.591370,268.313751 473.439484,261.841003 
z"/>
</svg>